<?xml version="1.0" encoding="utf-8"?>
<!-- Generator: Adobe Illustrator 30.1.0, SVG Export Plug-In . SVG Version: 9.03 Build 0)  -->
<svg version="1.1" baseProfile="basic" id="Laag_1" xmlns="http://www.w3.org/2000/svg" xmlns:xlink="http://www.w3.org/1999/xlink"
	 x="0px" y="0px" width="1943.864px" height="1727.126px" viewBox="0 0 1943.864 1727.126" xml:space="preserve">
<path fill="#0000FF" d="M558.565,61.691l33.809-1.778c-1.293,45.592-2.447,87.294-0.227,131.844
	c0.482,9.674,0.914,18.202,0.588,28.13l-38.285-1.745l0.969-56.854l-34.814,1.235l1.51,66.887l-36.008,0.099l3.141-37.557
	c0.706-8.437,1.185-19.517,0.784-28.18l-2.428-52.411l-1.271-25.531c13.78,0.049,23.232,0.906,36.367,2.479l-2.174,45.35
	l35.213,0.289C559.338,108.313,548.789,78.449,558.565,61.691z M428.399,71.017l-1.62,73.104l-4.459,69.656
	c15.098,1.028,28.416,1.257,42.477-2.42l-3.87-45.031c-2.791-32.477-0.753-62.529-0.363-95.665
	c16.478-5.621,73.663,1.45,74.412-5.889l1.12-10.968c0.627-6.139-0.909-14.559-4.158-19.713
	c-48.675,4.662-94.855,5.58-143.909,4.461c-3.277,10.599-3.478,25.845,1.46,33.285L428.399,71.017z M702.322,210.212l1.334-35.647
	c-24.867-1.574-37.129,7.549-55.853,4.85l-2.943-43.36c11.619-0.133,19.347,0.795,31.146,2.653
	c10.872,1.712,11.559-24.247,7.244-29.93c-1.376-1.812-6.323-2.064-9.126-1.908l-29.945,1.667l1.557-37.984
	c28.464-0.805,28.773,0.446,52.757,3.378c2.296-9.81,3.089-21.988,1.063-32.471c-34.363-2.351-50.81,4.442-88.416,0.225
	c-1.864,58.348,1.896,107.813-1.911,167.828L702.322,210.212z M403.73,773.707l30.104,8.329
	c11.743,3.249,37.712,11.682,37.464-3.937l-0.691-43.43l-2.812-156.455l0.291-83.612l22.385,91.819l27.351,111.015l60.482-3.849
	c3.056-23.081,9.418-43.896,14.157-65.866l13.471-62.45l18.406-91.161c3.168,19.678,2.724,37.093,2.864,56.008l0.135,18.332
	l0.953,119.559l-0.736,72.38l-1.149,91.707c-0.029,2.302,2.509,7.603,4.428,8.826c1.919,1.223,6.29-1.069,9.317-1.533l69.344-10.633
	c8.028-1.231,19.259-3.787,22.339-11.27c3.734-9.068-2.16-18.381-2.795-27.092l-3.135-42.963
	c-1.896-25.994-3.186-51.187-7.157-77.372c-3.625-23.902-5.248-46.683-6.491-70.686l-1.525-29.428l-2.037-43.73l-1.134-29.91
	l-0.974-25.65l-2.444-41.296l-1.532-128.39l0.237-31.144l-52.796,0.899c-16.94,0.288-33.407,0.647-50.963,0.346
	c-4.059,3.291-5.354,11.434-6.758,17.339c-5.985,25.178-10.542,49.457-15.284,74.724l-4.123,21.968l-11.687,56.364l-15.953,66.425
	l-4.366-19.022l-5.153-22.564l-14.757-60.899l-11.466-57.188c-3.089-15.409-8.313-30.002-10.401-45.747
	c-0.923-6.962-1.829-13.027-4.494-19.489c-10.992,0.071-19.899,1.045-30.152,2.03c-22.824,2.193-45.072,1.22-68.3,0.216
	c-2.175-0.094-7.134,1.635-7.621,3.707c-0.406,1.726-0.108,5.238-0.111,7.981l-0.199,154.629l-0.652,30.738l-1.617,62.466
	l-2.267,37.877l-7.917,99.328l-5.778,76.167C368.79,774.444,380.547,767.293,403.73,773.707z M842.353,891.729
	c1.348,1.964,9.387,4.508,11.392,2.719c7.318-6.532,16.889-31.978,16.49-43.543l-18.518-12.907
	c-3.755-2.617-12.407,3.987-13.93,7.861c-1.623,4.128,2.696,10.639,3.436,15.347C842.592,869.919,841.919,882.386,842.353,891.729z
	 M742.984,371.205c2.321,0.453,6.583,0.331,9.908,0.066l39.812-3.173l55.347-4.032c21.273-1.55,41.98-0.587,63.666-0.698
	c2.451,5.056,3.602,11.004,3.785,16.509l2.279,68.395c1.03,30.903-0.047,60.698-0.898,91.748l-1.824,66.526
	c-0.603,21.999-2.212,43.294-4.287,65.359l-2.27,24.138c-1.906,20.264-4.124,54.572-1.334,73.171
	c9.138,1.011,16.932,0.298,25.696-0.557c9.646-0.941,18.882,0.179,28.867,0.404l48.199,1.086c2.568,0.058,5.11-6.07,4.932-8.177
	l-8.757-103.894l-4.575-64.699l-1.675-54.664l-0.604-26.485l0.293-44.059l0.214-31.891c0.148-22.04,1.862-43.621,3.184-66.048
	l35.62-0.564c37.066-0.587,93.745,4.173,131.63,7.915c3.548-3.601,4.991-11.23,4.394-17.115c-2.75-27.129-3.492-52.584-0.403-79.789
	c-3.954-2.53-10.355-3.115-15.629-2.902l-60.232,2.421c-13.013,0.523-20.732,4.097-41.901,4.894l-47.564,1.789l-26.333,0.354
	l-85.627,0.956l-16.224-0.048c-47.478-0.141-93.714-0.323-142.61-5.701l0.193,78.098
	C738.264,363.628,740.275,370.677,742.984,371.205z M761.875,787.908l50.062-0.429l48.702-0.168
	c-0.609-29.564-5.365-39.356-6.43-73.317l-1.566-49.93l-1.286-24.029l1.98-141.796c0.11-7.905,0.751-16.169,1.384-23.902
	l5.756-70.326l-93.274,0.432c-4.612,0.021-4.371,8.628-4.178,11.613l6.863,106.392l0.692,113.893
	c0.125,20.638,0.505,40.872-1.185,61.18L761.875,787.908z M163.794,458.718c-0.401,8.529,0.902,17.984,1.518,27.153
	c0.944,14.057,18.646,23.97,25.766,29.443c7.156,5.5,14.245,13.112,21.51,19.495l29.894,26.265
	c20.859,18.327,46.051,40.113,70.098,53.344c7.699-8.024-1.514-30.606-4.273-33.011c-6.722-5.858-14.017-9.519-19.646-16.756
	c8.044,2.356,12.065,6.422,18.52,11.874l2.658-19.31c2.139,0.615,10.134-1.185,10.287-3.991c0.329-6.042-1.935-12.124-4.029-16.542
	c6.822,3.849,11.367,6.054,15.041,5.019l-10.176-24.723c-27.439-21.867-31.407-38.774-59.308-64.917
	c-9.653-9.045-17.863-17.662-26.955-27.302L191.8,379.273c-5.071,1.121-9.916,11.212-7.545,14.191
	c10.359,13.019,21.643,23.417,31.667,38.003c-8.381,2.84-34.301-39.317-37.455-30.828l-1.958,5.269
	c-6.816,18.346-16.85,11.85-12.522,27.393C166.405,441.983,164.21,449.867,163.794,458.718z M511.071,797.264l27.356,48.994
	c0.899,1.61,5.292,3.879,6.815,2.929c1.219-0.76,3.425-4.276,3.522-5.984l0.604-10.606c4.502,2.369,8.422,5.168,11.606,4.494
	c4.247-0.899,10.451-4.751,12.18-7.377c-4.37-7.448-8.982-13.715-12.085-21.294l-12.696-31.013
	c-1.078-2.633-9.347-2.037-10.642,0.036c-1.075,1.722-2.463,5.528-2.341,7.652l0.546,9.485l-13.55-9.173
	C518.066,787.078,511.884,792.734,511.071,797.264z M303.495,739.777c3.444-3.933,5.726-10.69,6.45-14.552l6.047,0.054
	c-10.382-14.219-32.339-18.479-45.079-25.472L245.67,685.95l21.117,6.851l-8.711-12.214c-17.072-9.459-32.331-23.095-52.924-22.448
	c-3.03,7.094-6.055,14.755-7.886,21.891l-6.389,24.904c17.092,10.322,37.762,15.478,58.382,18.316
	C261.189,724.893,288.907,737.081,303.495,739.777z M218.734,303.047c4.436,5.846,10.433,9.342,17.306,5.509l-28.85-54.214
	c-6.662-0.913-15.661-0.591-21.513,2.206c-0.539,3.158,2.148,8.787,4.089,11.02C200.168,279.533,209.301,290.614,218.734,303.047z
	 M1679.835,725.21l-19.929,10.047c-8.481,4.276-17.458,8.581-24.379,13.434l8.644,16.518c2.027,3.874,11.138-3.32,14.927-4.918
	l39.149-16.503l-5.695-9.175c-1.387-2.235-1.546-7.663-3.073-9.775C1688.17,723.028,1681.875,724.181,1679.835,725.21z
	 M1690.092,462.376c3.021-2.789,6.896-7.084,6.49-10.907c-0.297-2.803-3.031-6.887-5.058-9.835l-4.333-6.301
	c-1.012-1.472-6.855,1.77-7.821,3.392l-10.618,17.836c-4.948,8.312-7.917,15.082-13.948,22.85c-2.027,2.61-3.363,8.582-1.182,10.283
	C1661.431,495.792,1675.98,475.402,1690.092,462.376z M1706.94,523.305l-25.281,20.449l-50.366,49.47l-15.189,14.922
	c-6.738,6.619-8.193,14.169-4.988,23.505c-6.506,5.535-14.269,11.272-19.011,18.63c-2.256,3.5,4.471,13.335,8.16,15.211
	l36.753-23.464c-3.912,5.469-8.841,8.618-15.133,13.25c11.306,10.101,14.202-9.468,22.153-3.356
	c-6.897,11.421-49.756,19.484-37.799,39.863c2.874,4.899,10.866,2.006,14.843,1.768c5.072-0.303,8.677-0.943,12.48-3.381
	l19.654-12.596c8.165-5.233,15.667-10.529,23.853-15.98l22.974-15.3l26.797-19.321l29.621-20.943
	c4.962-3.508,12.941-11.474,16.54-16.89c3.956-10.066,7.623-22.466,8.057-32.687l1.378-32.438
	c0.323-7.614-11.406-14.083-9.605-26.552c-19.912,9.705-33.409,30.874-52.919,37.586c9.588-9.365,18.732-18.628,29.403-27.144
	c7-5.587,14.95-8.753,17.86-18.51c1.072-3.595-4.266-11.659-9.043-11.811l-29.185,25.158
	C1720.965,509.627,1714.948,516.827,1706.94,523.305z M820.289,234.697c3.008-45.059-5.961-79.974-1.483-118.978
	c13.499,22.741,18.27,75.989,32.697,85.71c9.604-1.375,18.371-1.849,29.038-1.383l22.068-88.808
	c5.187,20.878,5.287,42.597,5.151,65.259l-0.304,50.625c9.88,0.701,37.574-3.161,46.533-6.067
	c0.438-34.352-5.809-65.747-10.681-99.019c-4.67-31.894-3.583-60.911-3.401-93.237l-49.559-0.357
	c-11.73,34.504-19.459,66.084-27.508,102.13c-6.873-12.989-8.818-24.605-11.913-36.884L835.712,33.34l-53.006,1.177
	c2.731,66.833-1.868,126.987-11.289,191.1C788.339,232.584,803.139,236.178,820.289,234.697z M1865.888,745.818l-52.947,12.948
	l-64.371,15.443l-8.96,9.811l20.772,15.55c4.958,3.712,7.948,8.107,15.393,7.896l28.088-0.794l62.618-1.194
	c2.656-0.051,7.584,0.762,8.694-0.962c0.888-1.38,1.928-4.962,2.104-6.887l2.167-23.634l-12.715-3.628
	c-1.563-0.446-4.974-2.716-6.579-4.218c6.662-2.699,15.042-6.187,19.816-9.529C1881.457,748.386,1871.972,744.33,1865.888,745.818z
	 M1797.057,673.883c13.149,1.331,19.51-9.957,32.92-14.283l17.609-5.68c9.054-2.92,17.233-6.647,26.424-9.484
	c15.717-4.853,34.139-7.807,46.178-19.861c6.271-6.278-1.478-19.686-6.782-23.552c-0.188-8.179-4.454-15.202-10.685-19.753
	c-19.507,17.748-10.698,7.484-32.15,21.181l-46.183,29.489c5.371,7.741,7.566,1.932,11.146,0.097l20.863-10.692l18.989-9.406
	c-0.762,4.628-5.633,8.712-10.431,11.297l-32.485,17.503c-11.781,6.348-24.137,14.744-35.955,22.852
	C1794.656,664.868,1794.864,673.661,1797.057,673.883z M1051.763,205.523c16.831,27.836,53.249,42.514,82.444,29.708
	c36.949-16.207,45.229-69.306,39.026-107.239l-66.93-1.97c-2.623,12.989-2.561,23.779-0.542,34.943l30.327-0.726
	c-2.531,15.115-3.223,23.555-8.139,32.464c-4.074,7.384-16.612,12.076-23.347,10.373c-35.279-8.92-31.9-140.003,5.882-138.286
	c4.864,0.221,15.34,5.181,16.105,10.07l3.829,24.467c13.885,0.715,27.337-1.103,41.079-7.602
	c-0.374-23.368-12.001-45.059-32.887-57.18c-26.236-15.226-59.085-5.491-78.053,17.889c-18.43,22.716-23.217,50.736-22.843,79.859
	C1038.038,157.666,1038.195,183.083,1051.763,205.523z M1132.7,406.8l-67.772-0.106c-3.18-0.005-7.171,6.245-7.033,9.547
	l6.043,143.878c1.355,32.259,0.304,63.231-0.799,95.094l-1.88,54.314l-2.025,54.121c-0.304,8.134-2.206,18.487,2.096,25.612
	c9.473,0.084,18.365,0.323,27.162-0.051l54.385-2.31c28.109-1.194,55.2,0.051,83.415,0.346l35.065,0.367
	c3.636,0.038,13.026-0.065,13.975-3.876c1.48-5.945,0.136-12.487,0.389-17.964l1.471-31.772c0.422-9.12,1.535-17.446-0.156-27.008
	l-75.559,11.467c-17.347,2.633-36.855,0.936-54.647,1.216l-1.633-35.574l-1.331-58.514c12.46-1.129,23.986-1.587,35.702-0.658
	l18.929,1.502c11.526,0.914,21.336,1.582,33.852,1.258l2.117-67.439c0.158-5.026-6.643-9.914-11.096-9.304l-45.909,6.292
	c-10.37,1.421-21.192,0.184-32.851-0.058c-0.162-19.018-1.346-37.513,0.36-56.873l2.331-26.453
	c13.614-0.639,27.138-1.17,41.232-0.672c7.145,0.252,15.875,3.111,23.029,3.905l50.717,5.629c2.056,0.228,6.619-0.667,7.153-2.281
	c0.399-1.208,1.08-4.616,1.101-5.935l1.009-62.524c0.028-1.745-1.511-6.085-3.049-6.868c-1.154-0.588-4.601-1.32-5.963-1.284
	l-47.935,1.279l-26.193,1.384C1169.541,407.483,1151.493,406.829,1132.7,406.8z M973.18,225.513
	c6.008,3.538,36.109,7.831,43.516,1.625c4.61-14.732-1.641-28.035-2.059-41.007c-1.577-48.958,0.204-95.401,1.962-145.056
	c-15.728-1.227-29.517-0.62-44.197,1.472l0.783,170.014C973.202,216.175,970.503,223.936,973.18,225.513z M1516.596,203.932
	l-2.622,24.189c4.752,2.378,51.306,9.026,47.967,0.016c2.933-25.941-9.427-54.754,0.806-79.26l41.26-98.811
	c2.732-6.542,10.526-12.628,8.034-20.396c-15.718-2.67-30.078-2.663-45.123,1.447l-26.028,83.088l-19.515-49.151l-10.291-32.558
	l-43.756,4.376l49.622,115.104C1518.724,167.078,1518.39,187.383,1516.596,203.932z M1374.618,85.053l1.576,24.454
	c2.677,41.544-2.111,82.338-4.62,125.034l38.502,1.174c2.634,0.08,9.538-1.434,9.483-3.661c-0.045-1.847-0.261-5.537-0.419-8.008
	l-2.035-31.823l-1.551-31.265c-1.455-29.334,1.204-57.684,2.204-86.11l41.014,2.842c1.932-10.096,3.049-22.036,2.008-30.789
	c-0.525-4.421-10.766-8.447-14.972-7.804c-38.505,5.882-75.644,5.145-114.501,0.989l0.261,37.465
	C1361.489,82.033,1373.364,65.585,1374.618,85.053z M1227.429,221.782c3.927,0.197,9.059-6.6,8.56-10.88
	c-3.073-26.388-4.382-49.493-4.061-75.001l47.243-0.011l-7.096,81.792l33.054,1.777c2.833,0.152,9.336-2.549,11.033-4.638
	c3.952-4.867-2.492-63.917-1.897-86.283l2.05-77.164l1.355-23.035l-42.132,0.287c-3.164,19.952,6.28,63.582,1.172,73.631
	c-0.921,1.812-5.902,2.569-8,2.536l-36.248-0.555c-2.85-28.066,4.754-45.639,1.924-75.549l-43.296-0.173
	c-1.307,7.916-0.906,14.831-0.041,21.921c6.935,56.838,3.986,111.919-1.414,169.443L1227.429,221.782z M211.056,775.486
	c-44.281,7.753-53.788,3.494-105.024,15.232c-11.978,2.744-8.957,56.703-4.326,70.445l62.894-20.982
	c15.205-5.073,31.494-6.619,46.02-13.212c7.126-3.235,7.98-16.521,12.288-21.666c4.926-5.882,8.589-10.484,10.039-19.176
	c0.61-3.655-3.827-9.081-6.804-11.052C221.979,772.319,215.903,774.637,211.056,775.486z M1499.669,1402.091
	c-14.797,2.597-27.615,3.237-44.236,3.062c-1.474-13.138-2.02-23.085-2.247-34.923l-1.214-63.425l-0.525-71.188l-1.134-44.647
	l44.348,6.546c7.087,1.046,14.718,2.291,21.915,0.203c3.312-10.875-0.141-21.185,0.158-32.077l1.334-48.513
	c-27.984,0.133-39.955,10.27-67.977,2.924l1.468-60.625l2.186-77.482l25.384,0.862c14.807,0.503,30.067,1.856,44.447,5.709
	c10.22,2.739,19.483,4.593,30.169,3.143l0.937-59.962c0.103-6.61,0.489-13.662-3.794-19.283l-65.432,2.153
	c-39.754,1.308-64.246-1.333-104.198,1.284l3.852,120.2l2.015,56.274l1.799,47.847c1.6,42.55,1.404,84.263-0.058,126.95
	l-3.088,90.209l-3.216,72.731c-0.802,18.136-6.207,45.547,9.706,44.905l56.097-2.264c17.299-0.698,33.714-1.684,50.768-0.361
	c18.11,1.405,35.359,1.074,54.392,0.762l1.353-39.927c0.474-13.996,1.854-26.011,0.021-40.781L1499.669,1402.091z
	 M1353.654,1204.847l-1.482-37.306c-0.446-11.22,1.126-23.045,1.392-34.575l2.562-111.212l1.686-51.998
	c0.862-26.583,1.237-52.12,3.738-78.459c1.118-11.772,0.852-22.197,0.437-35.842l-65.803-0.522c-2.799-0.022-8.97,2.449-9.099,4.988
	c-0.115,2.264-0.037,6.626,0.038,9.61l3.433,135.9l2.267,76.252c0.584,19.645,1.035,37.476,0.047,57.405l-44.297,4.088
	c-2.389-6.122-2.755-12.856-2.466-19.467l1.673-38.276l1.747-51.726c0.457-13.52,1.953-25.502,0.133-39.778
	c-24.658,1.285-45.782,3.311-68.936,7.112l1.517,32.703c1.901,40.988,4.478,80.641,4.763,121.574l0.17,24.431l-0.354,45.695
	c-0.166,21.404-0.343,42.406-2.098,63.387l-3.08,36.839c-0.391,4.672-1.102,14.673,2.952,16.725l65.638,9.284
	c1.493-8.089,1.861-14.063,1.603-20.485l-2.799-69.738l-2.129-55.638l46.309,0.504c0.55,25.817,0.522,48.048-0.254,72.395
	l-1.429,44.832c-1.006,31.58-5.699,61.503-3.484,94.058c25.31,4.201,49.22,5.479,74.601,2.6l-7.468-127.03L1353.654,1204.847z
	 M1561.702,806.01l-56.265,33.317c-5.199,3.079-18.032,11.085-25.194,7.453c-2.073-1.051-4.515-6.346-4.495-8.851
	c0.103-13.287-2.856-25.139-6.437-37.643l-8.121-28.355l-22.319-95.336l-18.564-78.113l-22.242,1.537
	c-1.664,14.351-1.939,30.054-1.511,46.074l2.471,92.641c0.663,24.843,2.898,47.345,5.413,71.234c0.2,1.898-1.354,7.181-2.943,8.228
	c-1.59,1.047-5.089,0.351-7.935,0.316l-79.427-0.976c-2.37-0.029-5.922-4.813-5.785-7.324l1.984-36.493l2.994-25.895l1.618-65.57
	l0.439-22.186l0.665-107.914l-1.953-111.798c-0.189-10.811-1.851-20.569-2.404-31.155l-0.903-17.277l-1.619-35.302
	c-7.79,0.782-12.915,1.1-18.532,2.341l-67.12,14.823c-5.279-17.971-3.563-27.147-7.039-49.931c-0.75-4.92-0.731-9.541-0.682-14.054
	c0.038-3.564-2.105-9.931-0.3-14.649l55.111-11.22c15.424-3.14,30.08-4.748,45.904-6.026l37.711-3.047l43.201,1.338
	c20.985,0.65,40.263,1.886,61.445,8.003c30.824,8.901,60.153,28.373,76.628,57.062c26.741,46.566,24.87,119.403,9.216,169.188
	c-8.01,25.476-28.677,53.602-54.96,61.575c13.063,48.487,30.711,93.561,49.019,139.381c7.507,18.787,15.668,35.792,24.77,53.622
	c1.666,3.264,5.21,7.874,6.448,11.066l7.375,19.004C1577.524,801.579,1566.237,803.324,1561.702,806.01z M1470.05,434.243
	c-0.56-19.822-2.036-41.816-13.866-56.985c-13.947-17.883-34.091-23.973-55.472-22.18l-3.238,52.881
	c-2.408,39.323-1.764,77.463-0.75,116.731c19.987,3.579,51.689-12.198,60.844-31.56
	C1466.623,473.98,1470.631,454.813,1470.05,434.243z M1392.288,1544.033c-8.306,4.448-2.787,7.294-1.374,11.062l8.23,21.951
	l7.167,19.942c-4.51-1.287-8.009-6.595-10.027-11.657l-13.664-34.277c-4.956-12.431-11.88-25.668-18.58-38.337
	c-1.055-1.995-9.813-2.797-10.286-0.643c-2.829,12.91,7.656,20.523,10.415,34.341l3.624,18.144
	c1.863,9.329,4.628,17.881,6.393,27.337c3.019,16.17,3.842,34.808,14.437,48.15c5.518,6.949,19.725,0.788,24.174-4.038
	c8.146,0.751,15.613-2.682,20.848-8.35c-15.395-21.412-6.208-11.486-17.356-34.365L1392.288,1544.033z M1913.87,1274.285
	c0.248-2.181-2.43-7.501-4.531-8.638l-23.28-12.598c-7.122-3.854-11.602-9.922-17.978-14.267l-14.318-9.759
	c-6.786-4.625-14.24-8.735-22.299-12.287l-10.904,12.319c-2.643,2.986-10.635,3.824-12.998,8.338
	c5.044,9.113,14.624,13.707,22.032,20.281l37.034,32.863c6.945,6.163,13.699,12.845,20.752,19.916
	c2.479,0.498,9.137-2.606,11.609-4.749c1.966-1.705,1.244-8.078,2.509-10.245l7.72-5.542c1.543-1.108-0.488-6.435,0.452-8.084
	C1910.986,1279.526,1913.622,1276.466,1913.87,1274.285z M1216.189,1367.571c-5.188,4.279-11.913,11.134-16.99,16.537
	c-16.092,17.124-45.108,19.697-61.974,2.688c-19.033-19.193-24.87-45.141-29.826-70.437c-8.921-45.537-13.288-84.283-12.814-131.175
	c0.53-52.347,4.003-102.927,12.898-154.612c4.25-24.697,9.147-47.94,22.76-69.153c11.978-18.666,34.989-25.528,55.157-16.253
	c23.419,10.769,25.491,28.871,31.816,25.028c1.349-0.819,3.512-4.131,3.893-5.845l13.403-60.265
	c2.23-10.028-1.151-15.281-8.042-20.581c-13.405-10.311-26.904-19.304-44.144-22.191c-23.567-3.946-46.799-2.73-69.168,7.745
	c-20.623,9.656-35.488,28.699-47.348,48.257c-12.088,19.934-19.017,41.536-24.577,64.264c-6.245,25.525-12.896,49.8-14.392,76.368
	l-3.913,69.451c0.121,29.076-1.602,57.055,0.029,85.461l2.272,39.579c3.51,61.137,9.73,113.662,39.708,170.101
	c6.81,12.821,15.837,22.186,26.458,31.759c36.778,33.148,94.587,34.3,131.162,3.135l13.375-11.397
	c2.042-11.451,0.088-23.114-3.891-34.012C1222.843,1386.823,1225.713,1368.099,1216.189,1367.571z M1680.787,1629.947
	c-9.013-13.975-6.884-36.994-16.904-43.348c-2.659-1.686-8.281,1.953-9.868,4.274c-1.679,2.455-1.596,8.541-0.284,11.744
	l23.675,57.815c4.12,2.197,2.019,2.24-2.209,1.732c-9.046-13.944-20.798-56.798-28.245-60.884c-4.065-2.23-8.619-2.315-13.731,0.284
	c12.37,25.432,22.159,48.996,30.396,75.679c2.141,6.937,6.519,16.58,13.972,18.789c10.284,3.049,17.814-4.921,24.85-7.5
	c2.872-0.93,9.794,0.49,11.471-2.661c1.477-2.775,1.686-8.2-0.236-10.324C1693.295,1653.036,1702.464,1647.44,1680.787,1629.947z
	 M1819.093,1474.765l-63.511,43.832c-3.925,2.709-14.854,5.108-16.438-0.287c-6.029-20.535-7.283-40.544-11.571-61.208
	l-20.962-101.02c-4.45-21.447-6.96-42.149-10.497-63.891c-3.475-21.363-8.883-42.56-11.049-64.106
	c-0.244-2.429-4.558-6.276-6.708-5.878l-18.118,3.352l-0.898,25.954c-0.444,12.837-0.052,24.996,0.302,37.748l1.898,68.354
	l3.584,91.67c0.596,15.238,1.658,28.555-0.414,43.984l-42.704-1.309l-44.996-1.146c-5.551-9.677-1.858-19.74-1.593-29.522
	l1.626-59.936l3.787-68.745l0.392-276.183c0.022-15.795-2.229-30.9-2.909-46.217l-3.704-83.545l-1.93-74.104
	c-0.124-4.774-0.731-13.698,3.651-16.608l87.993-3.498c13.236-0.526,25.376,3.115,38.293,5.86
	c45.17,9.602,82.222,42.634,93.331,87.701c17.913,72.671,20.129,131.566-0.955,203.639c-5.365,18.338-13.198,33.062-26.037,46.754
	c-2.277,2.428-5.54,7.969-8.074,9.981c-5.94,4.717-12.631,10.267-14.977,16.411l18.966,62.184l32.779,102.883
	c6.715,21.077,14.404,41.024,22.255,61.556c4.546,11.89,9.416,22.152,9.44,35.618
	C1829.353,1468.493,1822.011,1472.751,1819.093,1474.765z M1710.067,941.473c-5.432-7.532-14.842-13.973-24.293-14.779
	l-22.012-1.877l-2.819,77.385l-1.55,74.527c-0.404,19.414-1.311,36.649-1.132,57.175c13.017,3.651,42.394-8.007,50.835-22.092
	c10.077-16.814,15.379-36.945,16.705-56.038C1728.406,1018.268,1732.222,972.193,1710.067,941.473z M1721.746,1571.121
	c-4.08-5.466-8.773-10.835-12.301-17c-2.604-4.548-4.869-8.105-9.563-9.786c1.438,5.988,2.321,10.626,3.521,13.553l5.993,14.619
	l6.234-0.992c-3.64,3.406-3.156,8.938,0.594,13.266c10.581,12.212,2.839,27.534,9.251,25.688l6.249-1.799
	c2.97-0.855,8.661-4.437,9.396-7.521c0.592-2.484-1.666-6.305-3.726-9.066L1721.746,1571.121z M353.208,1615.726
	c-6.366,10.513-14.143,19.527-22.319,29.627c3.245,5.133,10.898,6.178,15.494,3.382l5.968,4.627
	c8.601-17.618,15.295-30.708,25.623-46.934l-10.948-7.753C360.498,1603.571,357.205,1609.125,353.208,1615.726z M464.958,1498.264
	c2.142-2.924,0.148-11.53-1.073-15.225c-6.154-18.622-10.085-36.237-12.539-55.688c-1.025-8.124-3.587-16.366-10.089-21.546
	c-19.443,21.381-28.172,37.055-58.079,37.721c-12.543,0.279-25.263,0.201-35.131-7.033c-33.805-24.783-43.886-83.517-49.944-121.905
	c-9.204-58.315-9.46-86.113-7.85-144.668l1.113-40.48c1.207-43.908,5.813-105.849,16.067-147.858
	c3.252-13.321,8.853-24.667,14.108-37.524c9.893-24.203,31.551-43.535,59.95-39.83c14.122,1.843,29.688,9.334,39.676,19.121
	c5.986,5.866,9.646,14.869,19.749,13.827c6.544-3.364,5.954-18.538,9.214-36.106l7.05-37.99c2.142-11.545,2.009-22.946-9.754-30.245
	c-32.487-20.16-48.003-27.775-88.336-26.474c-28.871,0.931-56.77,11.939-77.905,31.271c-22.891,20.938-31.923,38.692-44.703,65.579
	c-14.756,31.045-20.827,63.834-26.906,97.718c-7.546,42.066-12.715,87.828-13.024,130.602l-0.303,41.909l2.269,86.009
	c0.445,16.874-0.515,33.216,2.095,49.898c5.466,34.943,13.541,68.135,24.148,101.67c6.778,21.432,15.25,40.408,26.421,59.762
	c15.797,27.369,37.41,48.964,67.136,61.809c16.772,7.247,35.446,7.25,54.131,7.99
	C408.659,1542.014,442.879,1528.409,464.958,1498.264z M188.167,1448.285c-16.42,4.016-24.61,14.292-36.981,22.705
	c-6.476,4.404-9.671,10.726-12.104,17.728l-24.82,17.095c-3.98,2.741-3.925,12.132-1.356,14.807
	c2.949,3.071,10.811,3.645,14.486,0.525l13.939-11.833c12.335-10.471,24.105-19.57,38.091-28.629L188.167,1448.285z
	 M513.038,1554.269l-12.82,11.315l6.301-19.647c0.65-2.027,0.556-6.849-0.995-8.305c-11.819-11.098-38.649,36.203-43.303,44.951
	l-18.022,33.877l-26.227,51.617c-1.746,3.437-4.177,8.169-2.357,10.951c1.317,2.013,6.627,4.204,9.319,4.207
	c37.296,0.036,14.197-0.402,35.96,9.979c3.091,1.474,10.217-3.015,14.004-2.885c3.747,0.129,10.93,0.735,14.065-3.02
	c7.774-9.311,8.873-18.801,11.283-29.914c5.394-24.878,13.6-48.981,22.903-72.468c2.419-6.108,6.284-10.985,1.258-17.014
	L513.038,1554.269z M772.471,911.279l-45.33,5.744c-2.055,0.26-7.237,2.921-7.176,4.708l0.271,7.924l1.888,58.164l1.517,83.174
	c1.012,55.488,1.911,109.775-0.115,165.184c-0.556,15.21-1.778,52.357-18.491,56.724c-4.549,1.189-14.34-0.455-16.782-4.077
	c-7.404-10.979-9.582-22.561-11.024-35.417l-2.025-18.057l0.272-189.547l2.422-120.133l2.02-41.223
	c0.102-2.077-4.499-7.122-6.307-6.644c-1.816,0.48-5.502,1.964-7.358,2.316l-61.172,11.618l2.452,38.643
	c3.334,52.546,3.38,104.234,3.49,157.11l0.118,56.4l-0.435,37.787c-0.357,31.018-0.172,60.781,3.979,91.916
	c3.162,23.719,13.362,45.838,26.661,65.169c12.862,18.696,33.769,24.576,55.603,25.328c6.798,0.234,13.136,0.624,19.823-0.322
	c33.984-4.806,49.349-29.439,59.275-59.809c8.333-25.497,11.66-49.695,11.97-76.64l0.368-31.964l-0.203-49.755l1.721-126.942
	l1.725-58.932c0.518-17.682,1.189-32.453,0.659-50.683L772.471,911.279z M1157.61,1638.122l-7.962-65.717l-8.72-10.026
	l-17.829,18.853c-4.255,4.5-8.964,6.966-9.609,14.386l-2.431,27.993l-5.991,62.342c-0.254,2.645-1.627,7.447-0.041,8.748
	c1.269,1.04,4.708,2.484,6.601,2.88l23.23,4.862l5.062-12.216c0.622-1.502,3.268-4.63,4.945-6.052
	c1.918,6.928,4.422,15.652,7.195,20.777c8.007,2.423,13.124-6.534,12.343-12.749L1157.61,1638.122z M883.436,1196.644l20.708,77.347
	l36.722,137.082l51.417-1.217c2.459-0.058,7.869-1.161,8.686-2.874c2.119-4.446,0.921-31.445,0.395-39.612l-2.199-34.143
	l0.497-249.287l4.105-87.136l2.595-53.066l9.406-124.743l-43.291-4.834l-28.799-3.512c-3.02-0.368-8.28-0.448-9.529,1.643
	c-1.04,1.743-2.887,7.015-2.883,9.12l0.12,55.139l1.97,61.447l2.711,63.71l1.236,35.922l0.681,25.926l0.859,33.736l0.913,42.161
	c0.313,14.448,0.552,27.509-0.016,42.661l-25.678-86.054l-15.599-56.216l-24.601-89.005c-6.461-2.177-12.638-2.221-19.3-2.082
	l-35.216,0.733c-2.445,0.051-8.479,2.987-8.446,4.94l1.469,87.025l1.038,73.622l0.118,16.99l-2.271,115.853l-4.323,101.269
	l-1.705,43.305l-2.928,42.697c-0.765,11.154,0.001,22.718,0.69,33.34l29.694,2.471l49.064,5.486
	c1.962-15.245,0.345-28.686-0.491-43.26l-6.648-115.825l-2.434-61.976l-1.9-50.002c-0.629-16.561-1.704-31.52-0.079-48.33
	C875.565,1171.007,879.797,1183.051,883.436,1196.644z M1021.014,1524.658c-14.433,0.509-29.397,0.167-44.885-0.687l-17.739-43.62
	c-0.699-1.718-3.667-4.62-4.832-5.626c-1.158-1-5.861,1.764-6.268,3.364l-11.2,44.041l-38.017-2.281
	c-2.854-0.171-8.329,1.604-9.661,3.719c-1.439,2.285,1.922,6.87,4.373,8.798l36.458,28.673l-12.33,47.211
	c-0.614,2.351,2.459,6.855,4.481,7.227c1.615,0.297,5.927-0.123,7.51-1.413l32.167-26.218l35.748,29.467
	c2.313,1.907,9.359,1.949,10.82-0.097c1.217-1.704,0.468-5.886-0.536-8.424l-17.823-45.063
	c14.758-11.238,26.768-20.006,39.407-31.149C1031.151,1530.406,1023.594,1524.567,1021.014,1524.658z M677.714,1522.839
	c15.898,29.854,32.146,56.582,47.431,89.703l-69.396,2.085l-60.07,1.939c-6.213,0.201-10.845-0.887-13.006-7.709l-31.202-98.496
	l-36.499-123.136l-27.343-86.398l-17.312-55.059c-1.112-3.538-12.899-3.054-14.738,0.449c-0.323,11.797-0.552,26.81,0.111,39.12
	l2.378,44.125c0.979,18.157,4.588,34.412,2.747,53.476c-13.159,1.949-24.13-0.271-36.599-1.791
	c-10.466-1.276-48.831-2.972-50.633-3.799c-2.102-0.965-2.624-7.325-2.511-9.928l2.935-67.822l1.52-28.265l2.1-51.871
	c1.507-37.22,0.329-72.968-1.508-110.102l-4.07-82.256l-2.789-47.619c-0.251-4.28,4.877-9.822,9.598-10.572
	c54.695-8.691,128.074-13.256,173.853,22.917c53.199,42.036,60.512,129.174,31.214,186.179
	c-9.034,17.578-25.24,28.339-41.026,40.237c3.31,11.988,10.148,23.268,14.548,35.068c15.729,42.178,32.28,81.868,50.822,122.961
	C630.795,1426.2,652.061,1474.666,677.714,1522.839z M505.214,1055.499c-11.175-17.127-31.459-27.907-50.922-21.267l-2.285,41.382
	l-1.594,49.042c-0.472,14.52-0.969,27.619-0.706,42.588c0.236,13.417,31.559,1.468,42.616-8.333
	C518.871,1135.379,523.236,1083.119,505.214,1055.499z M735.386,1404.825c-2.237-1.28-8.627,0.638-10.262,2.958l-13.147,18.653
	l-14.624,21.8c-1.332,1.986-2.638,8.235-1.694,10.444l23.278,12.673l12.141-1.148l5.721-19.685l6.234-20.066
	C746.388,1419.656,740.555,1407.783,735.386,1404.825z"/>
<path fill="#FF4E0F" d="M30.683,272.389c-1.851-0.447-5.779-4.236-5.79-6.162c-0.01-1.927,2.735-5.694,4.729-6.571l50.148-22.057
	l1.15-49.688c0.047-2.011,1.632-6.413,2.506-8.031c0.879-1.627,7.278-0.995,8.569,0.88l27.536,40.011l43.355-20.943
	c3.447-1.665,15.461,1.392,13.809,4.638c-9.699,19.056-19.247,34.494-30.636,52.432l30.06,42.893
	c18.486,26.379-47.852-8.16-59.23-3.265c-6.296,8.738-28.859,47.286-37.107,48.126c-1.295,0.132-4.982-3.768-4.956-5.303
	l0.925-56.07L30.683,272.389z M319.708,111.642l-40.167,12.445l-20.844-33.768c-0.766-1.241-3.772-3.805-4.424-3.083
	c-0.655,0.726-2.945,3.839-3.022,4.959l-2.574,37.64l-32.807,8.687c-1.727,0.457-5.3,3.476-4.644,4.837
	c0.49,1.016,2.68,3.559,3.877,4.078l32.399,14.044l-3.337,45.096c-0.086,1.159,2.957,4.784,3.867,4.128
	c20.491-14.771,19.663-39.393,37.129-32.542l28.661,11.243c1.815-5.057-0.107-8.902-2.476-12.931l-15.742-26.783
	C299.127,141.397,328.621,116.149,319.708,111.642z M1745.34,272.063c-1.094-0.582-3.919-1.725-5.551-1.996l-39.855-6.633
	l-1.554-43.032c-0.074-2.058-3.096-6.857-5.106-6.532c-1.61,0.26-5.634,2.38-6.592,4.084l-21.632,38.493l-44.778-9.984
	c-2.239-0.499-7.476,0.983-7.273,2.76c0.153,1.338,1.06,5.467,2.084,6.634l28.492,32.477c-5.796,17.031-27.647,35.864-22.26,46.896
	c10.889,0.483,34.74-16.428,47.59-18.934l30.409,38.227c1.213,1.525,6.854,2.971,7.559,1.81c0.69-1.138,2.015-4.609,1.833-5.987
	l-6.811-51.867l22.857-9.59C1725.484,288.582,1755.062,277.237,1745.34,272.063z M133.603,1303.529
	c-10.84,3.677-22.666,7.227-34.456,10.278l-19.947-30.157c-1.033-1.562-4.815-3.729-6.527-4.426
	c-1.362-0.555-3.927,5.251-3.956,6.92l-0.657,37.028l-34.211,10.109c-1.985,0.587-5.648,4.91-6.007,7.174
	c13.425,6.407,26.708,11.825,40.153,16.597l1.628,48.003c12.186,6.008,22.558-29.258,31.478-37.311l27.025,11.723
	c4.584,1.989,10.216,3.803,15.786,0.02l-24.318-37.734C122.826,1337.591,159.721,1294.67,133.603,1303.529z M1916.548,1566.875
	c-1.141-0.42-3.17-1.119-5.037-1.664l-35.26-10.283l-3.976-38.803c-0.152-1.482-2.435-4.558-3.228-5.393
	c-0.784-0.826-4.398,1.351-5.089,2.521l-20.874,35.316l-32.962-10.659c-1.54-0.498-4.676,0.263-5.644,0.925
	c-0.971,0.664-0.539,4.768,0.324,5.908l22.985,30.383l-19.937,37.388c-0.761,1.427,1.679,5.833,2.979,5.512
	c0.89-0.219,3.773-0.787,4.688-1.149l36.376-14.408l23.926,31.213c1.141,1.489,7.304,1.635,8.005,0.294
	c0.701-1.342,1.834-4.86,1.608-6.438l-5.261-36.735l35.946-15.716C1918.169,1574.192,1918.088,1567.441,1916.548,1566.875z
	 M272.897,1580.951l-42.627,15.746l-19.677-32.609c-1.477-2.448-6.044-5.951-8.541-5.849c-2.698,0.11-4.569,5.479-4.768,8.59
	l-2.947,46.289l-45.879,16.612c-2.284,0.827-4.252,5.912-3.412,7.789c0.671,1.499,3.461,4.812,5.422,5.385l39.835,11.631
	l-4.004,46.154c-0.259,2.987,3.701,8.815,6.215,8.858c2.094,0.036,5.114-2.952,6.635-5.218l27.013-40.232
	c17.624,5.784,31.657,10.706,48.002,14.798c3.188,0.798,3.712-8.738,2.175-10.811c-8.602-11.6-16.806-24.12-24.884-37.362
	l25.872-39.345c1.019-1.55,1.726-5.64,1.895-7.171C279.389,1582.686,274.445,1580.379,272.897,1580.951z"/>
<g>
</g>
<g>
</g>
<g>
</g>
<g>
</g>
<g>
</g>
<g>
</g>
</svg>
